# Blender v2.69 (sub 0) OBJ File: ''
# www.blender.org
o Cube_Cube.001
v 3.874718 -13.121017 1.799029
v -3.077337 -7.599112 -12.068742
v 7.164049 5.294746 -12.068742
v 14.116104 -0.227160 1.799029
v -6.984404 -4.495790 10.677234
v -13.936459 1.026116 -3.190537
v -3.695072 13.919973 -3.190537
v 3.256983 8.398067 10.677234
vn -0.621962 -0.783047 0.000000
vn -0.422200 0.335347 -0.842193
vn 0.621962 0.783047 -0.000000
vn 0.422200 -0.335347 0.842193
vn 0.659477 -0.523812 -0.539176
vn -0.659477 0.523812 0.539176
s off
f 5//1 6//1 1//1
f 6//2 7//2 2//2
f 7//3 8//3 3//3
f 8//4 5//4 4//4
f 1//5 2//5 4//5
f 8//6 7//6 5//6
f 6//1 2//1 1//1
f 7//2 3//2 2//2
f 8//3 4//3 3//3
f 5//4 1//4 4//4
f 2//5 3//5 4//5
f 7//6 6//6 5//6
